# xmcd
#
# Track frame offsets:
#	150
#	24736
#	46814
#	72090
#	96704
#	125254
#	150049
#	168672
#	200698
#	219008
#	245581
#	268011
#	294266
#
# Disc length: 4313 seconds
#
# Revision: 1
# Processed by: cddbd v1.5.2PL0 Copyright (c) Steve Scherf et al.
# Submitted via: EZCDAudioConverter 8.0.2.1
#
DISCID=b410d70d
DTITLE=Thanh Lam - Lam Xưa
DYEAR=2008
DGENRE=World Pop
TTITLE0=Em và tôi
TTITLE1=Lối cũ ta về
TTITLE2=Cho em một ngày
TTITLE3=Giọt nắng bên thềm
TTITLE4=Ngày em đi
TTITLE5=Gọi anh
TTITLE6=Em tôi
TTITLE7=Chia tay hoàng hôn
TTITLE8=Hoa sữa
TTITLE9=Rừng xưa đã khép
TTITLE10=Tùy hứng lý ngựa ô
TTITLE11=Đá trong chồng
TTITLE12=Người ở người về
EXTD=
EXTT0=
EXTT1=
EXTT2=
EXTT3=
EXTT4=
EXTT5=
EXTT6=
EXTT7=
EXTT8=
EXTT9=
EXTT10=
EXTT11=
EXTT12=
PLAYORDER=
